{"title":"Zeitgeist Moving Forward  Official Trailer- [ Extended ].mov","uid":5878207,"size":240508087,"categoryP":"video","categoryS":"movie_clips","magnet":"?xt=urn:btih:9a5e84cd82e2af8c9ff62ffd6319d61048f2757f&amp;dn=Zeitgeist+Moving+Forward++Official+Trailer-+%5B+Extended+%5D.mov&amp;tr=udp%3A%2F%2Ftracker.openbittorrent.com%3A80&amp;tr=udp%3A%2F%2Fopen.demonii.com%3A1337&amp;tr=udp%3A%2F%2Ftracker.coppersurfer.tk%3A6969&amp;tr=udp%3A%2F%2Fexodus.desync.com%3A6969","seeders":1,"leechers":0,"uploader":"radioman-lt","files":1,"time":1286735361,"description":" &lt;a href=&quot;http://www.zeitgeistmovingforward.com/&quot; rel=&quot;nofollow&quot; target=&quot;_NEW&quot;&gt;http://www.zeitgeistmovingforward.com/&lt;/a&gt;\n\nSYNOPSIS: Zeitgeist: Moving Forward, by director Peter Joseph, is a feature length documentary work which will present a case for a needed transition out of the current socioeconomic monetary paradigm which governs the entire world society. This subject matter will transcend the issues of cultural relativism and traditional ideology and move to relate the core, empirical &quot;life ground&quot; attributes of human and social survival, extrapolating those immutable natural laws into a new sustainable social paradigm called a &quot;Resource-Based Economy&quot;.\n\nTHEATRICAL RELEASE - Zeitgeist: Moving Forward is planned to be released in 60+ countries and in 20+ languages starting January 15th 2011. This large scale release is not associated with any major distributor.\n\nDVD/INTERNET RELEASE - This is a non-commercial project, which means it will be available for free acquisition via internet in both viewing form and full DVD download. ZeitgeistMovingForward.com will also have a physical $5.00 DVD available in mid to late January.\n\nVideo Format                     : MPEG-4\nFormat profile                   : QuickTime\nCodec ID                         : qt  \nFile size                        : 229 MiB\nDuration                         : 5mn 53s\nOverall bit rate                 : 5 438 Kbps\nWriting library                  : Apple QuickTime\nWidth                            : 854 pixels\nHeight                           : 480 pixels\nDisplay aspect ratio             : 16:9\nFrame rate mode                  : Constant\nFrame rate                       : 29.970 fps\nColor space                      : YUV\nChroma subsampling               : 4:2:0\nBit depth                        : 8 bits\nScan type                        : Progressive\nBits/(Pixel*Frame)               : 0.328\nStream size                      : 170 MiB (74%)\nEncoded date                     : UTC 2010-10-04 05:50:25\n\nAudio Format                     : PCM\nFormat settings, Endianness      : Little\nFormat settings, Sign            : Signed\nCodec ID                         : sowt\nBit rate mode                    : Constant\nBit rate                         : 1 411.2 Kbps\nChannel(s)                       : 2 channels\nSampling rate                    : 44.1 KHz\nBit depth                        : 16 bits\nStream size                      : 59.5 MiB (26%)\nLanguage                         : English\n","torrent":{"xt":"urn:btih:9a5e84cd82e2af8c9ff62ffd6319d61048f2757f","amp;dn":"Zeitgeist+Moving+Forward++Official+Trailer-+%5B+Extended+%5D.mov","amp;tr":["udp%3A%2F%2Ftracker.openbittorrent.com%3A80","udp%3A%2F%2Fopen.demonii.com%3A1337","udp%3A%2F%2Ftracker.coppersurfer.tk%3A6969","udp%3A%2F%2Fexodus.desync.com%3A6969"],"infoHash":"9a5e84cd82e2af8c9ff62ffd6319d61048f2757f","infoHashBuffer":{"type":"Buffer","data":[154,94,132,205,130,226,175,140,159,246,47,253,99,25,214,16,72,242,117,127]},"announce":[],"urlList":[]}}